<svg xmlns="http://www.w3.org/2000/svg" width="512" height="512" viewBox="0 0 96 96" role="img" aria-labelledby="pc-symbol-title">
  <title id="pc-symbol-title">Símbolo PreçoCerto</title>
  <rect x="4" y="4" width="88" height="88" rx="21" fill="#EAF7FB"/>
  <path d="M20 31a8 8 0 0 1 8-8h30a8 8 0 0 1 5.66 2.34l16.7 16.7a8 8 0 0 1 0 11.32L51.66 82a8 8 0 0 1-11.32 0l-18-18A8 8 0 0 1 20 58.34Z" fill="#147DB3"/>
  <circle cx="36" cy="39" r="5.6" fill="#F5C55A"/>
  <path d="m39 58 9 9 18-19" fill="none" stroke="#fff" stroke-width="7.5" stroke-linecap="round" stroke-linejoin="round"/>
  <path d="M74 72h12" stroke="#139C93" stroke-width="7" stroke-linecap="round"/>
</svg>
