<svg xmlns="http://www.w3.org/2000/svg" width="960" height="360" viewBox="0 0 960 360" role="img" aria-labelledby="pc-logo-title pc-logo-desc">
  <title id="pc-logo-title">Preço Certo</title>
  <desc id="pc-logo-desc">Logomarca Preço Certo em verde e laranja com monograma PC, carrinho e etiqueta de desconto.</desc>
  <defs>
    <linearGradient id="g" x1="40" y1="35" x2="260" y2="310" gradientUnits="userSpaceOnUse"><stop stop-color="#108572"/><stop offset="1" stop-color="#075447"/></linearGradient>
    <linearGradient id="o" x1="175" y1="95" x2="330" y2="315" gradientUnits="userSpaceOnUse"><stop stop-color="#F58A45"/><stop offset="1" stop-color="#C94D16"/></linearGradient>
    <linearGradient id="d" x1="150" y1="145" x2="350" y2="290" gradientUnits="userSpaceOnUse"><stop stop-color="#3A3A3A"/><stop offset="1" stop-color="#202020"/></linearGradient>
    <filter id="s" x="-20%" y="-20%" width="140%" height="140%"><feDropShadow dx="0" dy="6" stdDeviation="6" flood-color="#000" flood-opacity=".16"/></filter>
  </defs>

  <g transform="translate(10 4) scale(.68)" filter="url(#s)">
    <path d="M106 74h170c75 0 129 38 146 99l-63 16c-10-33-40-52-85-52H170v101h-64V74Z" fill="url(#g)"/>
    <path d="M106 236h64v190h-64z" fill="url(#g)"/>
    <path d="M289 174c58 0 108 22 145 59l-47 46c-24-23-56-36-94-36-67 0-114 43-114 103 0 60 47 103 114 103 39 0 72-13 97-38l46 46c-38 38-89 59-147 59-102 0-177-68-177-170 0-103 75-172 177-172Z" fill="url(#o)"/>
    <g transform="translate(55 177)">
      <path d="M53 56h31M28 81h72M58 106h46" stroke="#fff" stroke-width="18" stroke-linecap="round"/>
      <path d="M57 56h28M29 81h65M58 106h40" stroke="#0B6B5C" stroke-width="11" stroke-linecap="round"/>
      <path d="M93 31h32c10 0 17 6 20 16l9 32h172c10 0 17 10 13 19l-27 71c-4 11-15 18-27 18H157c-13 0-24-8-27-21L96 31Z" fill="url(#d)" stroke="#fff" stroke-width="10" stroke-linejoin="round"/>
      <path d="M156 188h117" stroke="#fff" stroke-width="10" stroke-linecap="round"/><path d="M156 188h117" stroke="#2F2F2F" stroke-width="7" stroke-linecap="round"/>
      <circle cx="150" cy="218" r="24" fill="#2A2A2A" stroke="#fff" stroke-width="9"/><circle cx="278" cy="218" r="24" fill="#2A2A2A" stroke="#fff" stroke-width="9"/>
      <g transform="translate(303 96) rotate(13)">
        <path d="M0 0h69c10 0 18 5 23 13l35 57c5 9 4 20-4 27l-47 45c-8 8-22 8-30 0L4 101c-4-4-6-9-6-15V18C-2 8 6 0 16 0Z" fill="url(#d)"/>
        <circle cx="23" cy="25" r="12" fill="#fff"/><circle cx="23" cy="25" r="6" fill="#F26A21"/>
        <text x="33" y="93" fill="#fff" font-family="Arial,Helvetica,sans-serif" font-size="56" font-weight="700">%</text>
      </g>
    </g>
  </g>

  <g font-family="Inter,Arial,Helvetica,sans-serif" font-weight="800" letter-spacing="-5">
    <text x="430" y="151" fill="#0B6B5C" font-size="112">Preço</text>
    <text x="430" y="276" fill="#F26A21" font-size="112">Certo</text>
  </g>
</svg>
