<svg xmlns="http://www.w3.org/2000/svg" viewBox="0 0 1600 600">
<defs><linearGradient id="pharma-g" x1="0" y1="0" x2="1" y2="0"><stop offset="0" stop-color="#0b3a3a"/><stop offset="0.55" stop-color="#124f4a"/><stop offset="1" stop-color="#0e3f52"/></linearGradient></defs>
<rect width="1600" height="600" fill="url(#pharma-g)"/>
<rect x="1154.5" y="115.0" width="51.00000000000001" height="150" rx="14.280000000000003" fill="#ffffff" opacity="0.16"/><rect x="1105.0" y="164.5" width="150" height="51.00000000000001" rx="14.280000000000003" fill="#ffffff" opacity="0.16"/><g transform="translate(1010,380) rotate(-22)" opacity="0.14">
<rect x="-115.0" y="-46.0" width="230" height="92" rx="46.0" fill="#ffffff"/>
<path d="M -115.0 -46.0 h 115.0 v 92 h -115.0 a 46.0 46.0 0 0 1 0 -92 z" fill="#9fe8d0"/>
</g><rect x="1343.0" y="370.0" width="34.0" height="100" rx="9.520000000000001" fill="#ffffff" opacity="0.12"/><rect x="1310.0" y="403.0" width="100" height="34.0" rx="9.520000000000001" fill="#ffffff" opacity="0.12"/><g transform="translate(1440,160) rotate(18)" opacity="0.1">
<rect x="-80.0" y="-33.0" width="160" height="66" rx="33.0" fill="#ffffff"/>
<path d="M -80.0 -33.0 h 80.0 v 66 h -80.0 a 33.0 33.0 0 0 1 0 -66 z" fill="#9fe8d0"/>
</g><rect x="908.1" y="85.0" width="23.8" height="70" rx="6.664000000000001" fill="#ffffff" opacity="0.09"/><rect x="885.0" y="108.1" width="70" height="23.8" rx="6.664000000000001" fill="#ffffff" opacity="0.09"/>
</svg>